<svg width="75" height="76" viewBox="0 0 75 76" fill="none" xmlns="http://www.w3.org/2000/svg">
<g clip-path="url(#clip0_91_16)">
<path d="M57.9404 42.4933L57.9404 33.4052L42.044 33.4052L42.044 17.5089L32.956 17.5089L32.956 33.4052L17.0596 33.4052L17.0596 42.4933L32.956 42.4933L32.9559 58.3897L42.044 58.3897L42.044 42.4933L57.9404 42.4933Z" fill="white"/>
<g clip-path="url(#clip1_91_16)">
<path d="M57.9404 42.4933L57.9404 33.4052L42.044 33.4052L42.044 17.5089L32.956 17.5089L32.956 33.4052L17.0596 33.4052L17.0596 42.4933L32.956 42.4933L32.9559 58.3897L42.044 58.3897L42.044 42.4933L57.9404 42.4933Z" fill="white"/>
<g clip-path="url(#clip2_91_16)">
<path d="M57.9404 42.4933L57.9404 33.4052L42.044 33.4052L42.044 17.5089L32.956 17.5089L32.956 33.4052L17.0596 33.4052L17.0596 42.4933L32.956 42.4933L32.9559 58.3897L42.044 58.3897L42.044 42.4933L57.9404 42.4933Z" fill="white"/>
</g>
</g>
</g>
<defs>
<clipPath id="clip0_91_16">
<rect width="53" height="53" fill="white" transform="translate(37.5 0.472656) rotate(45)"/>
</clipPath>
<clipPath id="clip1_91_16">
<rect width="53" height="53" fill="white" transform="translate(37.5 0.472656) rotate(45)"/>
</clipPath>
<clipPath id="clip2_91_16">
<rect width="53" height="53" fill="white" transform="translate(37.5 0.472656) rotate(45)"/>
</clipPath>
</defs>
</svg>
