<svg width="75" height="76" viewBox="0 0 75 76" fill="none" xmlns="http://www.w3.org/2000/svg">
<g clip-path="url(#clip0_91_38)">
<path d="M57.9171 42.4933L57.9171 33.4052L42.0207 33.4052L42.0207 17.5089L32.9326 17.5089L32.9326 33.4052L17.0363 33.4052L17.0363 42.4933L32.9326 42.4933L32.9326 58.3897L42.0207 58.3897L42.0207 42.4933L57.9171 42.4933Z" fill="white"/>
<g clip-path="url(#clip1_91_38)">
<path d="M57.9171 42.4933L57.9171 33.4052L42.0207 33.4052L42.0207 17.5089L32.9326 17.5089L32.9326 33.4052L17.0363 33.4052L17.0363 42.4933L32.9326 42.4933L32.9326 58.3897L42.0207 58.3897L42.0207 42.4933L57.9171 42.4933Z" fill="white"/>
</g>
</g>
<defs>
<clipPath id="clip0_91_38">
<rect width="53" height="53" fill="white" transform="translate(37.4767 0.472656) rotate(45)"/>
</clipPath>
<clipPath id="clip1_91_38">
<rect width="53" height="53" fill="white" transform="translate(37.4767 0.472656) rotate(45)"/>
</clipPath>
</defs>
</svg>
